<svg width="41" height="31" viewBox="0 0 41 31" fill="none" xmlns="http://www.w3.org/2000/svg">
<path d="M32.1354 16.5368C32.1354 23.5101 26.4824 29.1632 19.509 29.1632C12.5356 29.1632 6.88255 23.5101 6.88255 16.5368C6.88255 9.56337 12.5356 3.91033 19.509 3.91033C26.4824 3.91033 32.1354 9.56337 32.1354 16.5368Z" fill="url(#paint0_angular_9_32)"/>
<path d="M25.2299 12.6149C25.2299 15.534 22.8635 17.9004 19.9444 17.9004C17.0253 17.9004 14.6589 15.534 14.6589 12.6149C14.6589 9.69585 17.0253 7.32946 19.9444 7.32946C22.8635 7.32946 25.2299 9.69585 25.2299 12.6149Z" fill="white"/>
<path d="M12.4033 7.11785C12.4033 10.0369 10.0369 12.4033 7.11785 12.4033C4.19875 12.4033 1.83236 10.0369 1.83236 7.11785C1.83236 4.19875 4.19875 1.83236 7.11785 1.83236C10.0369 1.83236 12.4033 4.19875 12.4033 7.11785Z" fill="white"/>
<path d="M10.571 23.6091C10.571 26.5282 8.20457 28.8946 5.28548 28.8946C2.36639 28.8946 0 26.5282 0 23.6091C0 20.69 2.36639 18.3236 5.28548 18.3236C8.20457 18.3236 10.571 20.69 10.571 23.6091Z" fill="white"/>
<path d="M36.2241 5.28548C36.2241 8.20457 33.8577 10.571 30.9386 10.571C28.0195 10.571 25.6531 8.20457 25.6531 5.28548C25.6531 2.36639 28.0195 0 30.9386 0C33.8577 0 36.2241 2.36639 36.2241 5.28548Z" fill="white"/>
<path d="M25.8861 25.5341C25.8861 28.4532 23.5198 30.8196 20.6007 30.8196C17.6816 30.8196 15.3152 28.4532 15.3152 25.5341C15.3152 22.615 17.6816 20.2486 20.6007 20.2486C23.5198 20.2486 25.8861 22.615 25.8861 25.5341Z" fill="white"/>
<path d="M40.312 19.5861C40.312 22.5052 37.9456 24.8715 35.0265 24.8715C32.1074 24.8715 29.741 22.5052 29.741 19.5861C29.741 16.667 32.1074 14.3006 35.0265 14.3006C37.9456 14.3006 40.312 16.667 40.312 19.5861Z" fill="white"/>
<defs>
<radialGradient id="paint0_angular_9_32" cx="0" cy="0" r="1" gradientUnits="userSpaceOnUse" gradientTransform="translate(27.5387 30.8793) rotate(-179.536) scale(7.38296 5.64473)">
<stop stop-color="#1E1E1E"/>
<stop offset="1" stop-color="white" stop-opacity="0"/>
</radialGradient>
</defs>
</svg>
